<?xml version="1.0" encoding="utf-8"?>
<!-- Generator: Adobe Illustrator 24.1.2, SVG Export Plug-In . SVG Version: 6.00 Build 0)  -->
<svg version="1.1" id="Layer_1" xmlns="http://www.w3.org/2000/svg" xmlns:xlink="http://www.w3.org/1999/xlink" x="0px" y="0px"
	 viewBox="0 0 1080 1080" style="enable-background:new 0 0 1080 1080;" xml:space="preserve">
<style type="text/css">
	.st0{fill:#313131;}
	.st1{fill:none;stroke:#383838;stroke-width:20;stroke-miterlimit:10;}
	.st2{fill:none;stroke:#FFFFFF;stroke-width:20;stroke-miterlimit:10;}
	.st3{fill:#E49967;}
	.st4{display:none;}
	.st5{display:inline;fill:#FFFFFF;}
	.st6{display:inline;fill:#E49967;}
</style>
<rect x="-6" y="-3" class="st0" width="1091" height="1091"/>
<line class="st1" x1="286.4" y1="902.5" x2="758" y2="162.8"/>
<path class="st1" d="M259,876.5c0,0-101.7-215,26.7-451c136.1-249.9,401.4-299,401.4-299"/>
<path class="st1" d="M817.7,206c0,0,100.8,215.4-28.6,450.9C652,906.2,386.4,954.2,386.4,954.2"/>
<path class="st2" d="M953.4,717.1c0,0-217.8,77.3-456-55.8C245.1,520.4,188.2,266.1,188.2,266.1"/>
<g>
	<path class="st3" d="M540.7,104.5c105.7,0,208,38.5,288,108.5c39.5,34.5,72.1,75.3,96.9,121.3c25.7,47.5,42.2,99.1,49.1,153.2
		c7.4,58.7,3.2,117-12.7,173.5c-15.3,54.5-40.8,105-75.6,149.9c-34.9,45-77.4,82.2-126.3,110.6c-50.7,29.4-106.1,48.1-164.8,55.6
		c-18.5,2.3-37.2,3.5-55.6,3.5c-105.7,0-208-38.5-288-108.5c-39.5-34.5-72.1-75.3-96.9-121.3c-25.7-47.5-42.2-99.1-49.1-153.2
		c-7.4-58.7-3.2-117,12.7-173.5c15.3-54.5,40.8-105,75.6-149.9c34.9-45,77.4-82.2,126.3-110.6c50.7-29.4,106.1-48.1,164.8-55.6
		C503.5,105.7,522.3,104.5,540.7,104.5L540.7,104.5 M540.7,84.5c-19.2,0-38.6,1.2-58.2,3.7C231.6,120,54,349.2,85.8,600.2
		c29.3,231.4,226.5,400.5,453.8,400.5c19.2,0,38.6-1.2,58.2-3.7c250.9-31.8,428.6-261,396.8-511.9C965.2,253.6,768,84.5,540.7,84.5
		L540.7,84.5z"/>
</g>
<g class="st4">
	<path class="st5" d="M913.4,788.2c-108.8,0-260.2-49.9-404.9-133.4c-117.4-67.8-217.2-149.5-281-230.1
		c-30.6-38.7-51.2-74.8-61-107.4c-9.8-32.3-8.5-59.4,3.8-80.6c23.7-41,81.8-49.6,126.4-49.6c108.8,0,260.2,49.9,404.9,133.4
		C819,388.3,918.8,470,982.6,550.6c30.6,38.7,51.2,74.8,61,107.4c9.8,32.3,8.5,59.4-3.8,80.6C1016.1,779.6,957.9,788.2,913.4,788.2z
		"/>
	<path class="st6" d="M296.6,197.1c107.1,0,256.6,49.4,399.9,132.1c58.9,34,113.4,71.5,161.9,111.6c46.6,38.4,85.7,77.5,116.2,116
		c58.3,73.6,78.9,138.1,56.5,176.9c-8.1,14-21.9,25-41,32.5c-20.3,8-46.1,12.1-76.7,12.1c-107.1,0-256.6-49.4-399.9-132.1
		c-58.9-34-113.4-71.5-161.9-111.6c-46.6-38.4-85.7-77.5-116.2-116c-58.3-73.6-78.9-138.1-56.5-176.9c8.1-14,21.9-25,41-32.5
		C240.2,201.1,266,197.1,296.6,197.1L296.6,197.1 M296.6,177.1c-65.3,0-113.7,17.7-135,54.6c-56.1,97.1,97,290.4,341.9,431.8
		c151.8,87.7,303.3,134.8,409.9,134.8c65.3,0,113.7-17.7,135-54.6c56.1-97.1-97-290.4-341.9-431.8
		C554.6,224.2,403.1,177.1,296.6,177.1L296.6,177.1z"/>
</g>
<g>
	<path class="st0" d="M542.7,133.8c99.7,0,196.1,36,271.5,101.4c37.2,32.3,67.9,70.4,91.3,113.3c24.2,44.4,39.7,92.5,46.2,143
		c7,54.4,3,108.6-11.7,161c-14.2,50.6-37.9,97.5-70.4,139.4c-32.9,42.4-73,77.5-119.4,104.3c-48,27.8-100.6,45.4-156.2,52.4
		c-17.4,2.2-35.1,3.3-52.5,3.3c-99.7,0-196.1-36-271.6-101.4c-37.2-32.3-67.9-70.4-91.3-113.3c-24.2-44.4-39.7-92.5-46.2-143
		c-7-54.4-3-108.6,11.7-161c14.2-50.6,37.9-97.5,70.4-139.4c32.9-42.4,73-77.5,119.4-104.3c48-27.8,100.6-45.4,156.2-52.4
		C507.6,134.9,525.2,133.8,542.7,133.8L542.7,133.8 M542.6,103.8c-18.6,0-37.3,1.2-56.2,3.5C243.7,137.8,71.9,357.5,102.7,598
		c28.4,221.8,219,383.9,438.8,383.9c18.6,0,37.3-1.2,56.2-3.5c242.7-30.5,414.5-250.2,383.7-490.7
		C953.1,265.8,762.5,103.8,542.6,103.8L542.6,103.8z"/>
</g>
</svg>
