<?xml version="1.0" encoding="utf-8"?>
<!-- Generator: Adobe Illustrator 24.1.2, SVG Export Plug-In . SVG Version: 6.00 Build 0)  -->
<svg version="1.1" id="Layer_1" xmlns="http://www.w3.org/2000/svg" xmlns:xlink="http://www.w3.org/1999/xlink" x="0px" y="0px"
	 viewBox="0 0 247 247" style="enable-background:new 0 0 247 247;" xml:space="preserve">
<style type="text/css">
	.st0{display:none;}
	.st1{display:inline;fill:#FFFFFF;}
	.st2{display:inline;fill:#E49967;}
	.st3{fill:#313131;}
	.st4{fill:none;stroke:#FFFFFF;stroke-width:15;stroke-miterlimit:10;}
</style>
<g class="st0">
	<path class="st1" d="M913.4,788.2c-108.8,0-260.2-49.9-404.9-133.4c-117.4-67.8-217.2-149.5-281-230.1
		c-30.6-38.7-51.2-74.8-61-107.4c-9.8-32.3-8.5-59.4,3.8-80.6c23.7-41,81.8-49.6,126.4-49.6c108.8,0,260.2,49.9,404.9,133.4
		c117.4,67.8,217.2,149.5,281,230.1c30.6,38.7,51.2,74.8,61,107.4c9.8,32.3,8.5,59.4-3.8,80.6C1016.1,779.6,957.9,788.2,913.4,788.2
		z"/>
	<path class="st2" d="M296.6,197.1c107.1,0,256.6,49.4,399.9,132.1c58.9,34,113.4,71.5,161.9,111.6c46.6,38.4,85.7,77.5,116.2,116
		c58.3,73.6,78.9,138.1,56.5,176.9c-8.1,14-21.9,25-41,32.5c-20.3,8-46.1,12.1-76.7,12.1c-107.1,0-256.6-49.4-399.9-132.1
		c-58.9-34-113.4-71.5-161.9-111.6c-46.6-38.4-85.7-77.5-116.2-116c-58.3-73.6-78.9-138.1-56.5-176.9c8.1-14,21.9-25,41-32.5
		C240.2,201.1,266,197.1,296.6,197.1L296.6,197.1 M296.6,177.1c-65.3,0-113.7,17.7-135,54.6c-56.1,97.1,97,290.4,341.9,431.8
		c151.8,87.7,303.3,134.8,409.9,134.8c65.3,0,113.7-17.7,135-54.6c56.1-97.1-97-290.4-341.9-431.8
		C554.6,224.2,403.1,177.1,296.6,177.1L296.6,177.1z"/>
</g>
<circle class="st3" cx="123.3" cy="123.9" r="123.4"/>
<circle class="st4" cx="123.2" cy="123.7" r="72.5"/>
</svg>
